CalSansUI-SemiBold.ufo
<glyph name="exclam" format="2">
  <advance width="262.2"/>
  <unicode hex="0021"/>
  <outline>
    <contour>
      <point x="89.775" y="190.25" type="line"/>
      <point x="175.47500000000002" y="190.25" type="line"/>
      <point x="194.5" y="560.75" type="line"/>
      <point x="194.5" y="700.0" type="line"/>
      <point x="70.75" y="700.0" type="line"/>
      <point x="70.75" y="560.75" type="line"/>
    </contour>
    <component base="period"/>
  </outline>
</glyph>
<glyph name="eight" format="2">
  <advance width="578.25"/>
  <unicode hex="0038"/>
  <outline>
    <contour>
      <point x="289.125" y="-13.0" type="curve" smooth="yes"/>
      <point x="432.65" y="-13.0"/>
      <point x="525.275" y="73.375"/>
      <point x="525.275" y="192.625" type="curve" smooth="yes"/>
      <point x="525.275" y="282.95"/>
      <point x="477.35" y="342.575"/>
      <point x="413.75" y="368.95" type="curve"/>
      <point x="413.75" y="372.275" type="line"/>
      <point x="471.025" y="404.0"/>
      <point x="505.6" y="454.9"/>
      <point x="505.6" y="518.875" type="curve" smooth="yes"/>
      <point x="505.6" y="630.575"/>
      <point x="425.02500000000003" y="713.0"/>
      <point x="289.125" y="713.0" type="curve" smooth="yes"/>
      <point x="153.89999999999998" y="713.0"/>
      <point x="73.625" y="630.575"/>
      <point x="73.625" y="517.9000000000001" type="curve" smooth="yes"/>
      <point x="73.625" y="454.9"/>
      <point x="107.225" y="404.0"/>
      <point x="165.5" y="372.275" type="curve"/>
      <point x="165.5" y="368.95" type="line"/>
      <point x="100.9" y="342.575"/>
      <point x="52.974999999999994" y="282.95"/>
      <point x="52.974999999999994" y="191.65" type="curve" smooth="yes"/>
      <point x="52.974999999999994" y="73.375"/>
      <point x="146.275" y="-13.0"/>
    </contour>
    <contour>
      <point x="289.125" y="92.05000000000001" type="curve" smooth="yes"/>
      <point x="223.60000000000002" y="92.05000000000001"/>
      <point x="174.075" y="141.3"/>
      <point x="174.075" y="204.375" type="curve" smooth="yes"/>
      <point x="174.075" y="267.25"/>
      <point x="220.025" y="316.425"/>
      <point x="289.125" y="316.425" type="curve" smooth="yes"/>
      <point x="358.225" y="316.425"/>
      <point x="404.175" y="267.25"/>
      <point x="404.175" y="203.4" type="curve" smooth="yes"/>
      <point x="404.175" y="141.3"/>
      <point x="354.65" y="92.05000000000001"/>
    </contour>
    <contour>
      <point x="290.775" y="416.07500000000005" type="curve" smooth="yes"/>
      <point x="230.325" y="416.07500000000005"/>
      <point x="192.025" y="461.5"/>
      <point x="192.025" y="513.175" type="curve" smooth="yes"/>
      <point x="192.025" y="567.675"/>
      <point x="234.875" y="608.625"/>
      <point x="289.79999999999995" y="608.625" type="curve" smooth="yes"/>
      <point x="346.4" y="608.625"/>
      <point x="388.55000000000007" y="567.675"/>
      <point x="387.875" y="512.2" type="curve" smooth="yes"/>
      <point x="387.20000000000005" y="459.22499999999997"/>
      <point x="350.9" y="416.07500000000005"/>
    </contour>
  </outline>
</glyph>
<glyph name="D" format="2">
  <advance width="728.2"/>
  <unicode hex="0044"/>
  <anchor x="339.25" y="0.0" name="bottom"/>
  <anchor x="142.85" y="349.0" name="center"/>
  <anchor x="357.25" y="700.0" name="top"/>
  <outline>
    <contour>
      <point x="80.64999999999999" y="0.0" type="line"/>
      <point x="307.525" y="0.0" type="line" smooth="yes"/>
      <point x="532.575" y="0.0"/>
      <point x="686.525" y="136.75"/>
      <point x="686.525" y="349.0" type="curve" smooth="yes"/>
      <point x="686.525" y="563.25"/>
      <point x="532.575" y="700.0"/>
      <point x="307.525" y="700.0" type="curve" smooth="yes"/>
      <point x="80.64999999999999" y="700.0" type="line"/>
    </contour>
    <contour>
      <point x="201.79999999999998" y="115.82499999999999" type="line"/>
      <point x="201.79999999999998" y="584.175" type="line"/>
      <point x="305.8" y="584.175" type="line" smooth="yes"/>
      <point x="464.65000000000003" y="584.175"/>
      <point x="562.7" y="506.1"/>
      <point x="562.7" y="349.0" type="curve" smooth="yes"/>
      <point x="562.7" y="192.9"/>
      <point x="464.65000000000003" y="115.82499999999999"/>
      <point x="305.8" y="115.82499999999999" type="curve" smooth="yes"/>
    </contour>
  </outline>
</glyph>
<glyph name="Y" format="2">
  <advance width="601.525"/>
  <unicode hex="0059"/>
  <anchor x="302.6" y="0.0" name="bottom"/>
  <anchor x="302.925" y="700.0" name="top"/>
  <anchor x="20.0" y="700.0" name="topleft"/>
  <outline>
    <contour>
      <point x="240.675" y="0.0" type="line"/>
      <point x="361.825" y="0.0" type="line"/>
      <point x="361.825" y="281.575" type="line"/>
      <point x="596.875" y="700.0" type="line"/>
      <point x="462.4" y="700.0" type="line"/>
      <point x="370.275" y="524.05" type="line" smooth="yes"/>
      <point x="328.275" y="444.725"/>
      <point x="310.275" y="393.675"/>
      <point x="306.275" y="381.67499999999995" type="curve"/>
      <point x="303.275" y="381.67499999999995" type="line"/>
      <point x="300.275" y="393.675"/>
      <point x="280.625" y="440.04999999999995"/>
      <point x="235.95000000000002" y="523.05" type="curve" smooth="yes"/>
      <point x="139.8" y="700.0" type="line"/>
      <point x="4.65" y="700.0" type="line"/>
      <point x="240.675" y="283.925" type="line"/>
    </contour>
  </outline>
</glyph>
<glyph name="f" format="2">
  <advance width="403.55"/>
  <unicode hex="0066"/>
  <anchor x="171.875" y="0.0" name="bottom"/>
  <anchor x="266.975" y="700.0" name="top"/>
  <outline>
    <contour>
      <point x="114.3" y="0.0" type="line"/>
      <point x="231.425" y="0.0" type="line"/>
      <point x="231.425" y="531.85" type="line" smooth="yes"/>
      <point x="231.425" y="584.8"/>
      <point x="267.15" y="611.65"/>
      <point x="319.27500000000003" y="611.65" type="curve" smooth="yes"/>
      <point x="344.575" y="611.65"/>
      <point x="364.55" y="609.975"/>
      <point x="384.525" y="603.65" type="curve"/>
      <point x="384.525" y="704.35" type="line"/>
      <point x="354.55" y="711.0"/>
      <point x="335.525" y="713.0"/>
      <point x="297.825" y="713.0" type="curve" smooth="yes"/>
      <point x="189.7" y="713.0"/>
      <point x="114.3" y="644.3"/>
      <point x="114.3" y="534.825" type="curve" smooth="yes"/>
    </contour>
    <contour>
      <point x="19.025" y="395.725" type="line"/>
      <point x="384.525" y="395.725" type="line"/>
      <point x="384.525" y="500.125" type="line"/>
      <point x="19.025" y="500.125" type="line"/>
    </contour>
  </outline>
</glyph>
<glyph name="u" format="2">
  <advance width="581.05"/>
  <unicode hex="0075"/>
  <anchor x="284.95" y="0.0" name="bottom"/>
  <anchor x="396.625" y="0.0" name="ogonek"/>
  <anchor x="287.525" y="500.125" name="top"/>
  <anchor x="496.9" y="500.125" name="topright"/>
  <outline>
    <contour>
      <point x="244.625" y="-12.325000000000001" type="curve" smooth="yes"/>
      <point x="317.92499999999995" y="-12.325000000000001"/>
      <point x="366.975" y="27.675"/>
      <point x="391.27500000000003" y="67.925" type="curve"/>
      <point x="397.275" y="67.925" type="line"/>
      <point x="397.275" y="0.0" type="line"/>
      <point x="510.4" y="0.0" type="line"/>
      <point x="510.4" y="500.125" type="line"/>
      <point x="393.275" y="500.125" type="line"/>
      <point x="393.275" y="208.17499999999998" type="line" smooth="yes"/>
      <point x="393.275" y="136.3"/>
      <point x="349.425" y="91.375"/>
      <point x="284.975" y="91.375" type="curve" smooth="yes"/>
      <point x="224.05" y="91.375"/>
      <point x="182.77499999999998" y="136.3"/>
      <point x="182.77499999999998" y="208.17499999999998" type="curve" smooth="yes"/>
      <point x="182.77499999999998" y="500.125" type="line"/>
      <point x="65.65" y="500.125" type="line"/>
      <point x="65.65" y="180.05" type="line" smooth="yes"/>
      <point x="65.65" y="67.1"/>
      <point x="148.72500000000002" y="-12.325000000000001"/>
    </contour>
  </outline>
</glyph>
<glyph name="yen" format="2">
  <advance width="621.525"/>
  <unicode hex="00A5"/>
  <anchor x="312.6" y="30.0" name="bottom"/>
  <anchor x="312.925" y="669.1175000000001" name="top"/>
  <anchor x="30.0" y="669.1175000000001" name="topleft"/>
  <outline>
    <contour>
      <point x="71.6" y="286.4" type="line"/>
      <point x="559.5999999999999" y="286.4" type="line"/>
      <point x="559.5999999999999" y="367.85" type="line"/>
      <point x="71.6" y="367.85" type="line"/>
    </contour>
    <contour>
      <point x="71.6" y="151.9" type="line"/>
      <point x="559.5999999999999" y="151.9" type="line"/>
      <point x="559.5999999999999" y="232.675" type="line"/>
      <point x="71.6" y="232.675" type="line"/>
    </contour>
    <component base="Y" yScale="0.913025" xOffset="10.0" yOffset="30.0"/>
  </outline>
</glyph>
<glyph name="section" format="2">
  <advance width="529.425"/>
  <unicode hex="00A7"/>
  <outline>
    <contour>
      <point x="267.375" y="-108.675" type="curve" smooth="yes"/>
      <point x="379.525" y="-108.675"/>
      <point x="460.575" y="-49.325"/>
      <point x="460.575" y="55.1" type="curve" smooth="yes"/>
      <point x="460.575" y="113.875"/>
      <point x="434.85" y="153.475"/>
      <point x="388.2" y="176.10000000000002" type="curve"/>
      <point x="388.2" y="178.1" type="line"/>
      <point x="440.85" y="203.72500000000002"/>
      <point x="464.55" y="247.575"/>
      <point x="464.55" y="300.35" type="curve" smooth="yes"/>
      <point x="464.55" y="413.70000000000005"/>
      <point x="365.825" y="446.52500000000003"/>
      <point x="294.025" y="469.79999999999995" type="curve" smooth="yes"/>
      <point x="241.175" y="486.75"/>
      <point x="197.95000000000002" y="504.3"/>
      <point x="197.95000000000002" y="552.525" type="curve" smooth="yes"/>
      <point x="197.95000000000002" y="588.425"/>
      <point x="231.575" y="615.65"/>
      <point x="279.35" y="615.65" type="curve" smooth="yes"/>
      <point x="324.675" y="615.65"/>
      <point x="354.225" y="594.675"/>
      <point x="381.55" y="551.7" type="curve"/>
      <point x="461.225" y="601.9" type="line"/>
      <point x="423.17499999999995" y="662.65"/>
      <point x="369.15" y="700.325"/>
      <point x="283.725" y="700.325" type="curve" smooth="yes"/>
      <point x="173.35" y="700.325"/>
      <point x="99.875" y="639.8000000000001"/>
      <point x="99.875" y="544.85" type="curve" smooth="yes"/>
      <point x="99.875" y="489.52500000000003"/>
      <point x="127.55" y="452.25"/>
      <point x="181.55" y="426.92500000000007" type="curve"/>
      <point x="181.55" y="424.925" type="line"/>
      <point x="128.47500000000002" y="404.52500000000003"/>
      <point x="95.9" y="354.6"/>
      <point x="95.9" y="298.85" type="curve" smooth="yes"/>
      <point x="95.9" y="216.45"/>
      <point x="147.025" y="169.775"/>
      <point x="231.025" y="145.175" type="curve" smooth="yes"/>
      <point x="301.275" y="124.6"/>
      <point x="363.175" y="106.94999999999999"/>
      <point x="363.175" y="49.075" type="curve" smooth="yes"/>
      <point x="363.175" y="2.950000000000002"/>
      <point x="325.35" y="-23.674999999999997"/>
      <point x="272.725" y="-23.674999999999997" type="curve" smooth="yes"/>
      <point x="221.5" y="-23.674999999999997"/>
      <point x="175.5" y="0.9750000000000014"/>
      <point x="145.225" y="56.650000000000006" type="curve"/>
      <point x="64.875" y="4.775" type="line"/>
      <point x="110.25" y="-72.7"/>
      <point x="182.325" y="-108.675"/>
    </contour>
    <contour>
      <point x="296.42499999999995" y="227.3" type="curve" smooth="yes"/>
      <point x="238.22500000000002" y="227.3"/>
      <point x="193.975" y="257.875"/>
      <point x="193.975" y="304.275" type="curve" smooth="yes"/>
      <point x="193.975" y="345.45"/>
      <point x="228.825" y="370.4"/>
      <point x="273.85" y="370.4" type="curve" smooth="yes"/>
      <point x="324.675" y="370.4"/>
      <point x="367.15" y="339.125"/>
      <point x="367.15" y="294.325" type="curve" smooth="yes"/>
      <point x="367.15" y="252.85"/>
      <point x="336.025" y="227.3"/>
    </contour>
  </outline>
</glyph>
<glyph name="Thorn" format="2">
  <advance width="605.0250000000001"/>
  <unicode hex="00DE"/>
  <anchor x="300.0" y="0.0" name="bottom"/>
  <anchor x="300.0" y="700.0" name="top"/>
  <outline>
    <contour>
      <point x="80.64999999999999" y="0.0" type="line"/>
      <point x="201.79999999999998" y="0.0" type="line"/>
      <point x="201.79999999999998" y="132.45" type="line"/>
      <point x="319.5" y="132.45" type="line" smooth="yes"/>
      <point x="466.75" y="132.45"/>
      <point x="564.375" y="207.225"/>
      <point x="564.375" y="351.65" type="curve" smooth="yes"/>
      <point x="564.375" y="495.07500000000005"/>
      <point x="466.425" y="571.2249999999999"/>
      <point x="319.5" y="571.2249999999999" type="curve" smooth="yes"/>
      <point x="201.79999999999998" y="571.2249999999999" type="line"/>
      <point x="201.79999999999998" y="700.0" type="line"/>
      <point x="80.64999999999999" y="700.0" type="line"/>
    </contour>
    <contour>
      <point x="201.79999999999998" y="248.275" type="line"/>
      <point x="201.79999999999998" y="455.4" type="line"/>
      <point x="311.5" y="455.4" type="line" smooth="yes"/>
      <point x="392.05" y="455.4"/>
      <point x="440.9" y="425.42499999999995"/>
      <point x="440.9" y="350.975" type="curve" smooth="yes"/>
      <point x="440.9" y="275.2"/>
      <point x="392.05" y="248.275"/>
      <point x="311.5" y="248.275" type="curve" smooth="yes"/>
    </contour>
  </outline>
</glyph>
<glyph name="germandbls" format="2">
  <advance width="632.25"/>
  <unicode hex="00DF"/>
  <outline>
    <contour>
      <point x="354.2" y="-13.0" type="curve" smooth="yes"/>
      <point x="506.15" y="-13.0"/>
      <point x="583.9" y="94.14999999999999"/>
      <point x="583.9" y="198.10000000000002" type="curve" smooth="yes"/>
      <point x="583.9" y="267.9"/>
      <point x="534.0" y="362.375"/>
      <point x="417.3" y="379.25" type="curve"/>
      <point x="417.3" y="383.25" type="line"/>
      <point x="482.79999999999995" y="405.95"/>
      <point x="522.9" y="465.32500000000005"/>
      <point x="522.9" y="529.0" type="curve" smooth="yes"/>
      <point x="522.9" y="620.625"/>
      <point x="432.9" y="713.0"/>
      <point x="303.775" y="713.0" type="curve" smooth="yes"/>
      <point x="166.65" y="713.0"/>
      <point x="70.65" y="613.6"/>
      <point x="70.65" y="494.0" type="curve" smooth="yes"/>
      <point x="70.65" y="0.0" type="line"/>
      <point x="187.77499999999998" y="0.0" type="line"/>
      <point x="187.77499999999998" y="494.0" type="line" smooth="yes"/>
      <point x="187.77499999999998" y="563.1"/>
      <point x="237.35000000000002" y="605.275"/>
      <point x="299.775" y="605.275" type="curve" smooth="yes"/>
      <point x="354.475" y="605.275"/>
      <point x="405.8" y="567.725"/>
      <point x="405.8" y="505.225" type="curve" smooth="yes"/>
      <point x="405.8" y="441.25"/>
      <point x="358.05" y="406.54999999999995"/>
      <point x="274.975" y="404.92499999999995" type="curve"/>
      <point x="274.975" y="310.575" type="line"/>
      <point x="402.9" y="328.925"/>
      <point x="467.45000000000005" y="265.2"/>
      <point x="467.45000000000005" y="198.17499999999998" type="curve" smooth="yes"/>
      <point x="467.45000000000005" y="128.95"/>
      <point x="412.77500000000003" y="92.725"/>
      <point x="352.475" y="92.725" type="curve" smooth="yes"/>
      <point x="321.85" y="92.725"/>
      <point x="297.5" y="99.10000000000001"/>
      <point x="273.625" y="107.725" type="curve"/>
      <point x="273.625" y="3.675" type="line"/>
      <point x="293.925" y="-8.325"/>
      <point x="329.95" y="-13.0"/>
    </contour>
  </outline>
</glyph>
<glyph name="ae" format="2">
  <advance width="889.525"/>
  <unicode hex="00E6"/>
  <anchor x="420.65" y="0.0" name="bottom"/>
  <anchor x="626.3" y="-8.775" name="ogonek"/>
  <anchor x="428.75" y="500.125" name="top"/>
  <outline>
    <contour>
      <point x="236.42499999999998" y="-13.0" type="curve" smooth="yes"/>
      <point x="324.475" y="-13.0"/>
      <point x="384.67499999999995" y="26.25"/>
      <point x="418.35" y="85.1" type="curve"/>
      <point x="423.02500000000003" y="85.1" type="line"/>
      <point x="455.9" y="25.6"/>
      <point x="537.65" y="-13.0"/>
      <point x="618.525" y="-13.0" type="curve" smooth="yes"/>
      <point x="705.175" y="-13.0"/>
      <point x="782.2250000000001" y="23.725"/>
      <point x="826.2" y="76.625" type="curve"/>
      <point x="747.6" y="153.3" type="line"/>
      <point x="718.675" y="113.4"/>
      <point x="671.325" y="92.05000000000001"/>
      <point x="615.475" y="92.05000000000001" type="curve" smooth="yes"/>
      <point x="532.95" y="92.05000000000001"/>
      <point x="472.125" y="159.375"/>
      <point x="475.525" y="237.05" type="curve"/>
      <point x="474.85" y="255.125" type="line"/>
      <point x="474.525" y="358.625"/>
      <point x="529.375" y="406.04999999999995"/>
      <point x="606.075" y="406.04999999999995" type="curve" smooth="yes"/>
      <point x="694.525" y="406.04999999999995"/>
      <point x="736.3499999999999" y="358.3"/>
      <point x="733.025" y="261.42499999999995" type="curve"/>
      <point x="769.125" y="308.525" type="line"/>
      <point x="450.225" y="308.525" type="line"/>
      <point x="474.85" y="218.275" type="line"/>
      <point x="847.4749999999999" y="218.275" type="line"/>
      <point x="850.1500000000001" y="227.27499999999998"/>
      <point x="850.825" y="245.0"/>
      <point x="850.825" y="259.725" type="curve" smooth="yes"/>
      <point x="850.825" y="412.75"/>
      <point x="755.75" y="513.125"/>
      <point x="608.075" y="513.125" type="curve" smooth="yes"/>
      <point x="528.3" y="513.125"/>
      <point x="468.02500000000003" y="480.0"/>
      <point x="433.95000000000005" y="439.725" type="curve"/>
      <point x="427.275" y="439.725" type="line"/>
      <point x="392.57500000000005" y="484.875"/>
      <point x="335.32500000000005" y="513.125"/>
      <point x="264.4" y="513.125" type="curve" smooth="yes"/>
      <point x="174.725" y="513.125"/>
      <point x="111.375" y="484.77500000000003"/>
      <point x="52.025000000000006" y="419.07500000000005" type="curve"/>
      <point x="129.65" y="343.5" type="line"/>
      <point x="166.575" y="386.775"/>
      <point x="204.92499999999998" y="406.04999999999995"/>
      <point x="265.475" y="406.04999999999995" type="curve" smooth="yes"/>
      <point x="336.85" y="406.04999999999995"/>
      <point x="368.85" y="362.0"/>
      <point x="368.85" y="328.775" type="curve" smooth="yes"/>
      <point x="368.85" y="275.575" type="line"/>
      <point x="389.95000000000005" y="310.2" type="line"/>
      <point x="299.15" y="305.575" type="line" smooth="yes"/>
      <point x="120.975" y="298.25"/>
      <point x="45.650000000000006" y="231.15000000000003"/>
      <point x="45.650000000000006" y="140.1" type="curve" smooth="yes"/>
      <point x="45.650000000000006" y="50.775"/>
      <point x="122.9" y="-13.0"/>
    </contour>
    <contour>
      <point x="244.75" y="92.05000000000001" type="curve" smooth="yes"/>
      <point x="192.95000000000002" y="92.05000000000001"/>
      <point x="158.725" y="111.65"/>
      <point x="158.725" y="148.825" type="curve" smooth="yes"/>
      <point x="158.725" y="191.8"/>
      <point x="220.65" y="210.675"/>
      <point x="309.55" y="214.65" type="curve" smooth="yes"/>
      <point x="389.3" y="218.6" type="line"/>
      <point x="368.85" y="247.075" type="line"/>
      <point x="368.85" y="210.325" type="line" smooth="yes"/>
      <point x="368.85" y="149.3"/>
      <point x="326.375" y="92.05000000000001"/>
    </contour>
  </outline>
</glyph>
<glyph name="thorn" format="2">
  <advance width="639.7"/>
  <unicode hex="00FE"/>
  <anchor x="319.85" y="0.0" name="bottom"/>
  <anchor x="319.85" y="700.0" name="top"/>
  <outline>
    <contour>
      <point x="352.625" y="-13.0" type="curve" smooth="yes"/>
      <point x="499.675" y="-13.0"/>
      <point x="601.0" y="105.5"/>
      <point x="601.0" y="249.4" type="curve" smooth="yes"/>
      <point x="601.0" y="393.975"/>
      <point x="499.675" y="512.8"/>
      <point x="352.625" y="512.8" type="curve" smooth="yes"/>
      <point x="276.4" y="512.8"/>
      <point x="215.7" y="475.225"/>
      <point x="193.775" y="419.25" type="curve"/>
      <point x="187.77499999999998" y="419.25" type="line"/>
      <point x="187.77499999999998" y="700.0" type="line"/>
      <point x="70.65" y="700.0" type="line"/>
      <point x="70.65" y="-220.0" type="line"/>
      <point x="187.77499999999998" y="-220.0" type="line"/>
      <point x="187.77499999999998" y="80.5" type="line"/>
      <point x="193.775" y="80.5" type="line"/>
      <point x="215.7" y="25.225"/>
      <point x="279.75" y="-13.0"/>
    </contour>
    <contour>
      <point x="335.175" y="94.07499999999999" type="curve" smooth="yes"/>
      <point x="248.05" y="94.07499999999999"/>
      <point x="187.125" y="161.575"/>
      <point x="187.125" y="249.4" type="curve" smooth="yes"/>
      <point x="187.125" y="339.2"/>
      <point x="248.05" y="405.725"/>
      <point x="335.175" y="405.725" type="curve" smooth="yes"/>
      <point x="424.25" y="405.725"/>
      <point x="483.875" y="339.85"/>
      <point x="483.875" y="250.39999999999998" type="curve" smooth="yes"/>
      <point x="483.875" y="160.925"/>
      <point x="424.25" y="94.07499999999999"/>
    </contour>
  </outline>
</glyph>
<glyph name="jdotless" format="2">
  <advance width="258.42499999999995"/>
  <unicode hex="0237"/>
  <anchor x="38.2" y="-233.0" name="bottom"/>
  <anchor x="52.2" y="-233.0" name="ogonek"/>
  <anchor x="128.875" y="500.125" name="top"/>
  <outline>
    <contour>
      <point x="33.325" y="-233.0" type="curve" smooth="yes"/>
      <point x="130.475" y="-233.0"/>
      <point x="187.77499999999998" y="-175.525"/>
      <point x="187.77499999999998" y="-72.525" type="curve" smooth="yes"/>
      <point x="187.77499999999998" y="500.125" type="line"/>
      <point x="70.65" y="500.125" type="line"/>
      <point x="70.65" y="-66.82499999999999" type="line" smooth="yes"/>
      <point x="70.65" y="-108.925"/>
      <point x="49.775" y="-126.89999999999999"/>
      <point x="15.875000000000004" y="-126.89999999999999" type="curve" smooth="yes"/>
      <point x="1.2250000000000005" y="-126.89999999999999"/>
      <point x="-11.124999999999998" y="-124.9"/>
      <point x="-26.075" y="-119.57499999999999" type="curve"/>
      <point x="-43.125" y="-223.325" type="line"/>
      <point x="-18.45" y="-230.0"/>
      <point x="5.925000000000002" y="-233.0"/>
    </contour>
  </outline>
</glyph>
<glyph name="gravecomb" format="2">
  <unicode hex="0300"/>
  <anchor x="0.0" y="500.125" name="_top"/>
  <anchor x="0.675" y="647.0" name="top"/>
  <outline>
    <contour>
      <point x="-28.4" y="547.0" type="line"/>
      <point x="31.099999999999998" y="547.0" type="line"/>
      <point x="7.4750000000000005" y="706.0" type="line"/>
      <point x="-122.725" y="706.0" type="line"/>
    </contour>
  </outline>
</glyph>
<glyph name="ogonekcomb" format="2">
  <unicode hex="0328"/>
  <anchor x="0.0" y="0.0" name="_ogonek"/>
  <outline>
    <contour>
      <point x="59.8" y="-220.0" type="curve" smooth="yes"/>
      <point x="79.1" y="-220.0"/>
      <point x="100.725" y="-218.35000000000002"/>
      <point x="124.0" y="-212.375" type="curve"/>
      <point x="104.625" y="-132.79999999999998" type="line"/>
      <point x="95.67500000000001" y="-135.45"/>
      <point x="85.725" y="-136.775"/>
      <point x="72.425" y="-136.775" type="curve" smooth="yes"/>
      <point x="40.550000000000004" y="-136.775"/>
      <point x="17.925" y="-119.75"/>
      <point x="17.925" y="-89.875" type="curve" smooth="yes"/>
      <point x="17.925" y="-43.025"/>
      <point x="54.1" y="-14.7"/>
      <point x="90.15" y="0.0" type="curve"/>
      <point x="70.425" y="6.0" type="line"/>
      <point x="23.0" y="17.0" type="line"/>
      <point x="0.0" y="0.0" type="line" smooth="yes"/>
      <point x="-47.974999999999994" y="-34.650000000000006"/>
      <point x="-71.675" y="-74.275"/>
      <point x="-71.0" y="-116.325" type="curve" smooth="yes"/>
      <point x="-69.65" y="-186.42499999999998"/>
      <point x="-19.6" y="-220.0"/>
    </contour>
  </outline>
</glyph>
<glyph name="trademark" format="2">
  <advance width="858.2249999999999"/>
  <unicode hex="2122"/>
  <outline>
    <contour>
      <point x="368.0" y="315.0" type="line"/>
      <point x="446.6" y="315.0" type="line"/>
      <point x="446.6" y="468.54999999999995" type="line" smooth="yes"/>
      <point x="446.6" y="542.0"/>
      <point x="446.6" y="569.925"/>
      <point x="439.6" y="625.75" type="curve"/>
      <point x="416.625" y="636.65" type="line"/>
      <point x="565.65" y="315.0" type="line"/>
      <point x="614.575" y="315.0" type="line"/>
      <point x="764.575" y="637.625" type="line"/>
      <point x="741.325" y="615.025" type="line"/>
      <point x="735.0" y="561.15"/>
      <point x="733.325" y="534.2"/>
      <point x="733.325" y="463.025" type="curve" smooth="yes"/>
      <point x="733.325" y="315.0" type="line"/>
      <point x="813.2249999999999" y="315.0" type="line"/>
      <point x="813.2249999999999" y="700.0" type="line"/>
      <point x="712.325" y="700.0" type="line"/>
      <point x="630.775" y="527.95" type="line" smooth="yes"/>
      <point x="588.175" y="438.42499999999995"/>
      <point x="588.175" y="418.125"/>
      <point x="581.5250000000001" y="389.175" type="curve"/>
      <point x="601.7" y="389.175" type="line"/>
      <point x="596.05" y="418.125"/>
      <point x="594.05" y="437.42500000000007"/>
      <point x="551.8" y="527.95" type="curve" smooth="yes"/>
      <point x="471.25" y="700.0" type="line"/>
      <point x="368.0" y="700.0" type="line"/>
    </contour>
    <contour>
      <point x="131.875" y="315.0" type="line"/>
      <point x="214.125" y="315.0" type="line"/>
      <point x="214.125" y="659.875" type="line"/>
      <point x="181.025" y="625.1" type="line"/>
      <point x="321.0" y="625.1" type="line"/>
      <point x="321.0" y="700.0" type="line"/>
      <point x="25.0" y="700.0" type="line"/>
      <point x="25.0" y="625.1" type="line"/>
      <point x="164.975" y="625.1" type="line"/>
      <point x="131.875" y="659.875" type="line"/>
    </contour>
  </outline>
</glyph>
<glyph name="increment" format="2">
  <advance width="724.95"/>
  <unicode hex="2206"/>
  <outline>
    <contour>
      <point x="11.65" y="0.0" type="line"/>
      <point x="713.3000000000001" y="0.0" type="line"/>
      <point x="406.375" y="700.0" type="line"/>
      <point x="315.875" y="700.0" type="line"/>
    </contour>
    <contour>
      <point x="156.47500000000002" y="67.975" type="line"/>
      <point x="352.45" y="559.85" type="line" smooth="yes"/>
      <point x="354.45" y="564.175"/>
      <point x="356.775" y="569.825"/>
      <point x="358.1" y="575.475" type="curve"/>
      <point x="361.425" y="575.475" type="line"/>
      <point x="362.425" y="569.825"/>
      <point x="365.075" y="564.175"/>
      <point x="367.07500000000005" y="559.85" type="curve" smooth="yes"/>
      <point x="563.775" y="67.975" type="line"/>
      <point x="582.8" y="94.55" type="line"/>
      <point x="137.125" y="94.55" type="line"/>
    </contour>
  </outline>
</glyph>
<glyph name="product" format="2">
  <advance width="662.55"/>
  <unicode hex="220F"/>
  <outline>
    <contour>
      <point x="428.325" y="-220.0" type="line"/>
      <point x="534.225" y="-220.0" type="line"/>
      <point x="534.225" y="700.0" type="line"/>
      <point x="428.325" y="700.0" type="line"/>
    </contour>
    <contour>
      <point x="128.325" y="-220.0" type="line"/>
      <point x="234.225" y="-220.0" type="line"/>
      <point x="234.225" y="700.0" type="line"/>
      <point x="128.325" y="700.0" type="line"/>
    </contour>
    <contour>
      <point x="42.275" y="606.9" type="line"/>
      <point x="620.275" y="606.9" type="line"/>
      <point x="620.275" y="700.0" type="line"/>
      <point x="42.275" y="700.0" type="line"/>
    </contour>
  </outline>
</glyph>
<glyph name="integral" format="2">
  <advance width="425.725"/>
  <unicode hex="222B"/>
  <outline>
    <contour>
      <point x="-120.0" y="-224.35" type="line"/>
      <point x="-95.32499999999999" y="-229.67499999999998"/>
      <point x="-66.85" y="-233.0"/>
      <point x="-36.225" y="-233.0" type="curve" smooth="yes"/>
      <point x="57.775" y="-233.0"/>
      <point x="134.825" y="-192.025"/>
      <point x="165.825" y="-53.025000000000006" type="curve" smooth="yes"/>
      <point x="290.525" y="507.1" type="line" smooth="yes"/>
      <point x="307.775" y="584.4"/>
      <point x="336.8" y="610.325"/>
      <point x="396.65" y="610.325" type="curve" smooth="yes"/>
      <point x="410.325" y="610.325"/>
      <point x="424.32500000000005" y="608.3249999999999"/>
      <point x="436.65" y="603.3249999999999" type="curve"/>
      <point x="455.725" y="703.325" type="line"/>
      <point x="434.975" y="709.675"/>
      <point x="415.30000000000007" y="713.675"/>
      <point x="389.225" y="713.675" type="curve" smooth="yes"/>
      <point x="289.525" y="713.675"/>
      <point x="212.79999999999998" y="666.675"/>
      <point x="181.8" y="527.35" type="curve" smooth="yes"/>
      <point x="55.150000000000006" y="-42.525" type="line" smooth="yes"/>
      <point x="40.175" y="-109.425"/>
      <point x="8.85" y="-130.325"/>
      <point x="-43.65" y="-130.325" type="curve" smooth="yes"/>
      <point x="-67.325" y="-130.325"/>
      <point x="-84.67500000000001" y="-128.325"/>
      <point x="-102.6" y="-123.35" type="curve"/>
    </contour>
  </outline>
</glyph>
<glyph name="approxequal" format="2">
  <advance width="596.0"/>
  <unicode hex="2248"/>
  <outline>
    <contour>
      <point x="70.52499999999999" y="162.77499999999998" type="line"/>
      <point x="144.54999999999998" y="192.77499999999998"/>
      <point x="219.25" y="192.77499999999998"/>
      <point x="293.275" y="162.77499999999998" type="curve" smooth="yes"/>
      <point x="364.29999999999995" y="133.77499999999998"/>
      <point x="442.0" y="132.775"/>
      <point x="516.025" y="162.77499999999998" type="curve"/>
      <point x="516.025" y="260.425" type="line"/>
      <point x="442.0" y="230.425"/>
      <point x="364.29999999999995" y="231.42499999999998"/>
      <point x="293.275" y="260.425" type="curve" smooth="yes"/>
      <point x="219.25" y="290.425"/>
      <point x="144.54999999999998" y="290.425"/>
      <point x="70.52499999999999" y="260.425" type="curve"/>
    </contour>
    <contour>
      <point x="70.52499999999999" y="371.55" type="line"/>
      <point x="144.54999999999998" y="401.55"/>
      <point x="219.25" y="401.55"/>
      <point x="293.275" y="371.55" type="curve" smooth="yes"/>
      <point x="364.29999999999995" y="342.54999999999995"/>
      <point x="442.0" y="341.55"/>
      <point x="516.025" y="371.55" type="curve"/>
      <point x="516.025" y="469.2" type="line"/>
      <point x="442.0" y="439.20000000000005"/>
      <point x="364.29999999999995" y="440.20000000000005"/>
      <point x="293.275" y="469.2" type="curve" smooth="yes"/>
      <point x="219.25" y="499.2"/>
      <point x="144.54999999999998" y="499.2"/>
      <point x="70.52499999999999" y="469.2" type="curve"/>
    </contour>
  </outline>
</glyph>
<glyph name="heartWhiteSuit" format="2">
  <advance width="832.0"/>
  <unicode hex="2661"/>
  <outline>
    <contour>
      <point x="416.0" y="-13.0" type="curve"/>
      <point x="618.0" y="102.0"/>
      <point x="827.0" y="294.0"/>
      <point x="827.0" y="508.0" type="curve" smooth="yes"/>
      <point x="827.0" y="622.0"/>
      <point x="736.0" y="713.0"/>
      <point x="622.0" y="713.0" type="curve" smooth="yes"/>
      <point x="503.0" y="713.0"/>
      <point x="426.675" y="620.0"/>
      <point x="419.67499999999995" y="531.0" type="curve"/>
      <point x="412.32500000000005" y="531.0" type="line"/>
      <point x="405.325" y="621.0"/>
      <point x="329.0" y="713.0"/>
      <point x="210.0" y="713.0" type="curve" smooth="yes"/>
      <point x="96.0" y="713.0"/>
      <point x="5.0" y="622.0"/>
      <point x="5.0" y="508.0" type="curve" smooth="yes"/>
      <point x="5.0" y="294.0"/>
      <point x="214.0" y="102.0"/>
    </contour>
    <contour>
      <point x="416.0" y="79.42500000000001" type="curve"/>
      <point x="249.825" y="180.025"/>
      <point x="93.4" y="334.85"/>
      <point x="93.4" y="495.925" type="curve" smooth="yes"/>
      <point x="93.4" y="571.75"/>
      <point x="149.225" y="635.325"/>
      <point x="221.45" y="635.325" type="curve" smooth="yes"/>
      <point x="303.525" y="635.325"/>
      <point x="348.8" y="590.55"/>
      <point x="384.6" y="465.325" type="curve"/>
      <point x="447.4" y="465.325" type="line"/>
      <point x="475.775" y="589.875"/>
      <point x="523.6" y="635.325"/>
      <point x="611.225" y="635.325" type="curve" smooth="yes"/>
      <point x="683.45" y="635.325"/>
      <point x="739.275" y="571.75"/>
      <point x="739.275" y="495.925" type="curve" smooth="yes"/>
      <point x="739.275" y="334.85"/>
      <point x="582.175" y="180.025"/>
    </contour>
  </outline>
</glyph>
<glyph name="sparkles" format="2">
  <advance width="724.0"/>
  <unicode hex="2728"/>
  <outline>
    <contour>
      <point x="139.0" y="279.54999999999995" type="curve"/>
      <point x="153.075" y="442.55"/>
      <point x="170.5" y="457.29999999999995"/>
      <point x="272.0" y="463.0" type="curve"/>
      <point x="170.5" y="472.375"/>
      <point x="153.075" y="485.775"/>
      <point x="139.0" y="646.45" type="curve"/>
      <point x="124.92500000000001" y="485.775"/>
      <point x="107.5" y="472.375"/>
      <point x="6.0" y="463.0" type="curve"/>
      <point x="107.5" y="457.29999999999995"/>
      <point x="124.92500000000001" y="442.55"/>
    </contour>
    <contour>
      <point x="272.0" y="-28.450000000000003" type="curve"/>
      <point x="286.075" y="134.55"/>
      <point x="303.5" y="148.625"/>
      <point x="405.0" y="155.0" type="curve"/>
      <point x="303.5" y="164.375"/>
      <point x="286.075" y="177.775"/>
      <point x="272.0" y="338.45" type="curve"/>
      <point x="257.92499999999995" y="177.775"/>
      <point x="240.5" y="164.375"/>
      <point x="139.0" y="155.0" type="curve"/>
      <point x="240.5" y="148.625"/>
      <point x="257.92499999999995" y="134.55"/>
    </contour>
    <contour>
      <point x="473.0" y="48.425" type="curve"/>
      <point x="501.07500000000005" y="341.55"/>
      <point x="536.5" y="370.625"/>
      <point x="718.0" y="384.0" type="curve"/>
      <point x="536.5" y="402.375"/>
      <point x="501.07500000000005" y="429.45000000000005"/>
      <point x="473.0" y="719.575" type="curve"/>
      <point x="444.925" y="429.45000000000005"/>
      <point x="409.5" y="402.375"/>
      <point x="228.0" y="384.0" type="curve"/>
      <point x="409.5" y="370.625"/>
      <point x="444.925" y="341.55"/>
    </contour>
  </outline>
</glyph>
<glyph name="G.ss02" format="2">
  <advance width="775.35"/>
  <anchor x="398.02500000000003" y="0.0" name="bottom"/>
  <anchor x="527.05" y="9.0" name="ogonek"/>
  <anchor x="398.02500000000003" y="700.0" name="top"/>
  <outline>
    <contour>
      <point x="396.675" y="-13.0" type="curve" smooth="yes"/>
      <point x="603.1" y="-13.0"/>
      <point x="733.675" y="127.35"/>
      <point x="733.675" y="321.675" type="curve" smooth="yes"/>
      <point x="733.675" y="342.05"/>
      <point x="732.0" y="368.5"/>
      <point x="729.325" y="386.575" type="curve"/>
      <point x="363.675" y="386.575" type="line"/>
      <point x="363.675" y="274.775" type="line"/>
      <point x="638.45" y="275.1" type="line"/>
      <point x="608.15" y="295.72499999999997" type="line"/>
      <point x="601.425" y="176.45"/>
      <point x="517.275" y="104.85"/>
      <point x="399.025" y="104.85" type="curve" smooth="yes"/>
      <point x="256.54999999999995" y="104.85"/>
      <point x="167.825" y="209.95"/>
      <point x="167.825" y="349.0" type="curve" smooth="yes"/>
      <point x="167.825" y="488.05"/>
      <point x="259.7" y="595.15"/>
      <point x="399.025" y="595.15" type="curve" smooth="yes"/>
      <point x="477.29999999999995" y="595.15"/>
      <point x="528.75" y="572.2249999999999"/>
      <point x="575.1" y="520.3" type="curve"/>
      <point x="662.425" y="601.65" type="line"/>
      <point x="590.7" y="681.35"/>
      <point x="510.67499999999995" y="713.0"/>
      <point x="396.675" y="713.0" type="curve" smooth="yes"/>
      <point x="188.35" y="713.0"/>
      <point x="41.675" y="551.625"/>
      <point x="41.675" y="349.0" type="curve" smooth="yes"/>
      <point x="41.675" y="147.375"/>
      <point x="189.64999999999998" y="-13.0"/>
    </contour>
  </outline>
</glyph>
<glyph name="ae.ss01" format="2">
  <advance width="1004.9749999999999"/>
  <anchor x="511.775" y="0.0" name="bottom"/>
  <anchor x="452.57500000000005" y="0.0" name="ogonek"/>
  <anchor x="511.775" y="500.125" name="top"/>
  <outline>
    <contour>
      <point x="728.575" y="-13.0" type="curve" smooth="yes"/>
      <point x="820.625" y="-13.0"/>
      <point x="897.675" y="23.725"/>
      <point x="941.65" y="76.625" type="curve"/>
      <point x="863.05" y="153.3" type="line"/>
      <point x="834.125" y="113.4"/>
      <point x="780.0250000000001" y="92.05000000000001"/>
      <point x="724.175" y="92.05000000000001" type="curve" smooth="yes"/>
      <point x="664.075" y="92.05000000000001"/>
      <point x="576.1" y="143.175"/>
      <point x="570.725" y="237.05" type="curve"/>
      <point x="570.05" y="255.125" type="line"/>
      <point x="567.025" y="374.825"/>
      <point x="664.075" y="415.5"/>
      <point x="714.775" y="415.5" type="curve" smooth="yes"/>
      <point x="803.225" y="415.5"/>
      <point x="851.8" y="355.375"/>
      <point x="848.475" y="258.5" type="curve"/>
      <point x="884.575" y="305.6" type="line"/>
      <point x="520.275" y="305.6" type="line"/>
      <point x="520.275" y="215.35000000000002" type="line"/>
      <point x="962.9250000000001" y="215.35000000000002" type="line"/>
      <point x="965.6" y="224.35"/>
      <point x="966.275" y="242.075"/>
      <point x="966.275" y="256.8" type="curve" smooth="yes"/>
      <point x="966.275" y="409.825"/>
      <point x="871.2" y="513.125"/>
      <point x="741.75" y="513.125" type="curve" smooth="yes"/>
      <point x="601.125" y="513.125"/>
      <point x="538.725" y="410.225"/>
      <point x="538.725" y="248.025" type="curve" smooth="yes"/>
      <point x="538.725" y="98.025"/>
      <point x="597.775" y="-13.0"/>
    </contour>
    <contour>
      <point x="465.82500000000005" y="419.25" type="line"/>
      <point x="465.82500000000005" y="80.5" type="line"/>
      <point x="586.7750000000001" y="80.5" type="line"/>
      <point x="543.925" y="258.425" type="line"/>
      <point x="586.7750000000001" y="419.25" type="line"/>
    </contour>
    <component base="a.ss01"/>
  </outline>
</glyph>
<glyph name="liraTurkish.tf" format="2">
  <advance width="596.0"/>
  <outline>
    <contour>
      <point x="51.925" y="288.95" type="line"/>
      <point x="517.3" y="387.325" type="line"/>
      <point x="517.3" y="473.1" type="line"/>
      <point x="51.925" y="374.725" type="line"/>
    </contour>
    <contour>
      <point x="51.925" y="428.775" type="line"/>
      <point x="517.3" y="527.15" type="line"/>
      <point x="517.3" y="608.875" type="line"/>
      <point x="51.925" y="513.875" type="line"/>
    </contour>
    <contour>
      <point x="125.375" y="30.0" type="line"/>
      <point x="251.0" y="30.0" type="line" smooth="yes"/>
      <point x="422.25" y="30.0"/>
      <point x="526.45" y="113.30000000000001"/>
      <point x="543.8" y="274.425" type="curve" smooth="yes"/>
      <point x="548.125" y="312.975" type="line"/>
      <point x="440.025" y="324.02500000000003" type="line"/>
      <point x="436.375" y="288.475" type="line" smooth="yes"/>
      <point x="425.4" y="193.1"/>
      <point x="361.225" y="145.82500000000002"/>
      <point x="278.325" y="145.82500000000002" type="curve" smooth="yes"/>
      <point x="246.525" y="145.82500000000002" type="line"/>
      <point x="246.525" y="670.0" type="line"/>
      <point x="125.375" y="670.0" type="line"/>
    </contour>
  </outline>
</glyph>
<glyph name="rupee.tf" format="2">
  <advance width="596.0"/>
  <outline>
    <contour>
      <point x="428.3" y="17.0" type="curve" smooth="yes"/>
      <point x="491.475" y="17.0"/>
      <point x="569.7" y="62.550000000000004"/>
      <point x="569.7" y="158.125" type="curve" smooth="yes"/>
      <point x="569.7" y="295.775"/>
      <point x="424.125" y="279.07500000000005"/>
      <point x="424.125" y="363.75" type="curve" smooth="yes"/>
      <point x="424.125" y="389.05"/>
      <point x="440.42500000000007" y="402.975"/>
      <point x="462.025" y="402.975" type="curve" smooth="yes"/>
      <point x="479.3" y="402.975"/>
      <point x="493.275" y="387.675"/>
      <point x="500.25" y="360.7" type="curve"/>
      <point x="578.4" y="404.125" type="line"/>
      <point x="557.175" y="462.025"/>
      <point x="514.4749999999999" y="489.875"/>
      <point x="463.775" y="489.875" type="curve" smooth="yes"/>
      <point x="388.0" y="489.875"/>
      <point x="334.6" y="439.15"/>
      <point x="334.6" y="357.425" type="curve" smooth="yes"/>
      <point x="334.6" y="228.375"/>
      <point x="480.175" y="243.4"/>
      <point x="480.175" y="154.5" type="curve" smooth="yes"/>
      <point x="480.175" y="123.225"/>
      <point x="458.25" y="104.225"/>
      <point x="427.625" y="104.225" type="curve" smooth="yes"/>
      <point x="398.02500000000003" y="104.225"/>
      <point x="377.125" y="122.15"/>
      <point x="350.25" y="154.7" type="curve" smooth="yes"/>
      <point x="204.025" y="334.725" type="line"/>
      <point x="142.35" y="284.5" type="line"/>
      <point x="234.67499999999998" y="284.825"/>
      <point x="325.375" y="348.35"/>
      <point x="325.375" y="472.2" type="curve" smooth="yes"/>
      <point x="325.375" y="604.8"/>
      <point x="234.0" y="670.0"/>
      <point x="134.3" y="670.0" type="curve" smooth="yes"/>
      <point x="17.599999999999998" y="670.0" type="line"/>
      <point x="17.599999999999998" y="30.0" type="line"/>
      <point x="113.525" y="30.0" type="line"/>
      <point x="113.525" y="279.45" type="line"/>
      <point x="127.82499999999999" y="279.45" type="line"/>
      <point x="134.075" y="262.575"/>
      <point x="146.725" y="243.95000000000002"/>
      <point x="160.64999999999998" y="229.02499999999998" type="curve" smooth="yes"/>
      <point x="264.7" y="110.9" type="line" smooth="yes"/>
      <point x="322.225" y="46.025"/>
      <point x="355.85" y="17.0"/>
    </contour>
    <contour>
      <point x="113.525" y="369.0" type="line"/>
      <point x="113.525" y="577.075" type="line"/>
      <point x="132.95" y="577.075" type="line" smooth="yes"/>
      <point x="188.85" y="577.075"/>
      <point x="227.475" y="548.3"/>
      <point x="227.475" y="470.84999999999997" type="curve" smooth="yes"/>
      <point x="227.475" y="397.075"/>
      <point x="189.52499999999998" y="369.0"/>
      <point x="134.3" y="369.0" type="curve" smooth="yes"/>
    </contour>
  </outline>
</glyph>
<glyph name="six.numr" format="2">
  <advance width="335.2"/>
  <outline>
    <contour>
      <point x="173.125" y="375.25" type="curve" smooth="yes"/>
      <point x="137.55" y="375.25"/>
      <point x="111.3" y="402.525"/>
      <point x="111.3" y="438.4" type="curve" smooth="yes"/>
      <point x="111.3" y="475.3"/>
      <point x="137.875" y="502.275"/>
      <point x="174.775" y="502.275" type="curve" smooth="yes"/>
      <point x="207.725" y="502.275"/>
      <point x="234.97500000000002" y="474.32500000000005"/>
      <point x="234.97500000000002" y="438.075" type="curve" smooth="yes"/>
      <point x="234.97500000000002" y="400.9"/>
      <point x="206.1" y="375.25"/>
    </contour>
    <contour>
      <point x="173.125" y="307.0" type="curve" smooth="yes"/>
      <point x="256.175" y="307.0"/>
      <point x="311.25" y="363.65"/>
      <point x="311.25" y="437.725" type="curve" smooth="yes"/>
      <point x="311.25" y="529.025"/>
      <point x="240.425" y="576.4000000000001"/>
      <point x="168.725" y="559.2" type="curve"/>
      <point x="259.025" y="700.0" type="line"/>
      <point x="173.425" y="700.0" type="line"/>
      <point x="68.65" y="535.65" type="line" smooth="yes"/>
      <point x="50.275000000000006" y="507.275"/>
      <point x="35.375" y="474.04999999999995"/>
      <point x="35.375" y="437.4" type="curve" smooth="yes"/>
      <point x="35.375" y="361.65"/>
      <point x="91.47500000000001" y="307.0"/>
    </contour>
  </outline>
</glyph>
